Coordinates
version=1
nRows=17
nColumns=24
inDegrees=yes

Units are S.I. units (second, meters, Newtons, ...)
Angles are in degrees.

endheader
time	pelvis_tilt	pelvis_list	pelvis_rotation	pelvis_tx	pelvis_ty	pelvis_tz	hip_flexion_r	hip_adduction_r	hip_rotation_r	knee_angle_r	ankle_angle_r	subtalar_angle_r	mtp_angle_r	hip_flexion_l	hip_adduction_l	hip_rotation_l	knee_angle_l	ankle_angle_l	subtalar_angle_l	mtp_angle_l	lumbar_extension	lumbar_bending	lumbar_rotation
      4.23000000	     -3.14687144	     -3.86906506	      1.44356355	     -1.59522404	      0.70546450	      0.08889114	      0.06243329	     10.93555135	     17.71976508	     -2.87815872	      9.66610499	    -18.23215492	      0.00000000	     29.26186219	     -1.63047982	     -1.84882784	    -61.74635914	      8.19891142	     -6.88812332	      0.00000000	    -10.78309206	      3.74428703	     -2.68503993
      4.24000000	     -2.90569378	     -4.19246707	      0.90170630	     -1.58172540	      0.70613428	      0.08932494	     -1.28187877	     11.30144641	     17.20926120	     -3.12459857	     10.75923774	    -16.14280045	      0.00000000	     30.41900850	     -2.15796112	     -1.48513656	    -59.56099046	      7.01295702	     -6.00877006	      0.00000000	    -11.32474699	      4.00370447	     -1.81497254
      4.25000000	     -2.94241937	     -4.30863543	      0.49823407	     -1.56839293	      0.70588149	      0.08924710	     -2.70820240	     11.31551375	     17.23729930	     -2.65225349	     11.25863082	    -15.32878437	      0.00000000	     31.57520276	     -2.32662951	     -1.20514195	    -56.63786617	      6.78703606	     -6.21665080	      0.00000000	    -11.54594051	      4.08737894	     -1.21719367
      4.26000000	     -2.92898620	     -4.26494589	     -0.00578270	     -1.55532643	      0.70523649	      0.08916431	     -4.30256022	     11.12283811	     17.48217212	     -1.96465041	     11.76602989	    -14.88900912	      0.00000000	     32.34122146	     -2.37597006	     -1.09277097	    -53.00458698	      7.21014249	     -6.72692839	      0.00000000	    -11.92053695	      3.98265977	     -0.49936979
      4.27000000	     -3.22932399	     -4.11015552	     -0.44330025	     -1.54228846	      0.70381127	      0.08896477	     -5.57638186	     10.80697751	     17.78352359	     -1.22764536	     12.24657841	    -14.87981565	      0.00000000	     33.13443621	     -2.22559480	     -0.75395190	    -48.71620526	      7.87567141	     -7.26064003	      0.00000000	    -11.89991061	      3.74437340	      0.03572137
      4.28000000	     -3.03895411	     -3.90724323	     -1.06384925	     -1.52937541	      0.70278070	      0.08879635	     -7.37559879	     10.36915604	     18.53074628	     -0.50575819	     12.52731734	    -15.23476708	      0.00000000	     32.99990089	     -2.09338050	     -0.41616559	    -43.71603582	      8.21833431	     -8.35419749	      0.00000000	    -12.59952681	      3.46071248	      0.85215513
      4.29000000	     -3.17908994	     -3.77567468	     -1.61225623	     -1.51625682	      0.70103619	      0.08858226	     -8.70638587	     10.03827906	     19.09144484	     -0.00924158	     12.93184753	    -15.52159658	      0.00000000	     32.91888333	     -1.96280254	      0.50514648	    -38.23662137	      8.37729969	     -9.31285852	      0.00000000	    -12.80203576	      3.26923510	      1.48506377
      4.30000000	     -3.44905738	     -3.74827809	     -2.24901988	     -1.50290905	      0.69894185	      0.08851425	     -9.78322844	      9.82449766	     19.65196752	      0.20800263	     13.46638908	    -15.50539779	      0.00000000	     32.62569842	     -2.01332259	      1.89221301	    -32.29823528	      8.11399769	    -10.49319090	      0.00000000	    -12.76991677	      3.18870941	      2.14179667
      4.31000000	     -3.22948089	     -3.72573109	     -2.81578578	     -1.48929320	      0.69718021	      0.08837505	    -11.34886840	      9.58756196	     20.10068133	      0.31176275	     14.11240522	    -15.39460719	      0.00000000	     31.37558110	     -2.06547610	      4.12319395	    -25.82378240	      7.24852774	    -12.46784773	      0.00000000	    -13.35023171	      3.07384606	      2.75276166
      4.32000000	     -3.06433388	     -3.99762216	     -3.52535096	     -1.47537733	      0.69507648	      0.08845893	    -12.79565997	      9.62901336	     20.63842091	      0.17201320	     14.79384339	    -14.90738507	      0.00000000	     29.88607996	     -2.65388594	      7.00656720	    -19.11665544	      5.70706382	    -15.53245859	      0.00000000	    -13.79904518	      3.31308974	      3.54702200
      4.33000000	     -3.00351174	     -4.51252380	     -4.34461406	     -1.46114258	      0.69254934	      0.08905702	    -14.07944174	      9.93752235	     21.19643528	     -0.20963032	     15.53323139	    -14.14019540	      0.00000000	     28.32118150	     -3.86335478	     10.16362096	    -12.40518873	      3.45839034	    -19.39054649	      0.00000000	    -14.05406420	      3.73416691	      4.49836316
      4.34000000	     -3.02789728	     -5.39560296	     -5.09785851	     -1.44673921	      0.68957117	      0.08998424	    -15.23511848	     10.68769775	     21.59111261	     -0.81712063	     16.16266558	    -13.20924576	      0.00000000	     27.03712345	     -5.70942276	     12.43237421	     -6.34621714	      1.58045191	    -22.36838979	      0.00000000	    -14.20051404	      4.52588093	      5.49832872
      4.35000000	     -3.31793397	     -6.36154058	     -5.90085996	     -1.43204994	      0.68625988	      0.09101406	    -16.11559538	     11.48962625	     22.24289768	     -1.53420960	     16.58297531	    -12.35147069	      0.00000000	     26.35541807	     -7.65723297	     12.68434950	     -1.37207690	      1.17488318	    -22.72240142	      0.00000000	    -13.96886442	      5.43787954	      6.56556155
      4.36000000	     -3.48018835	     -7.19361848	     -6.52495492	     -1.41691907	      0.68320572	      0.09157128	    -17.10334097	     12.11037639	     22.64068153	     -2.33998914	     16.93386060	    -11.31753123	      0.00000000	     25.66114308	     -9.18464583	     12.43073893	      2.69338256	      1.28083840	    -22.26666096	      0.00000000	    -13.83291581	      6.25775993	      7.34050461
      4.37000000	     -3.35315697	     -7.72452571	     -6.99488103	     -1.40126077	      0.68082379	      0.09165314	    -18.28676924	     12.35080268	     22.37143268	     -3.30120754	     17.47102881	     -9.38068488	      0.00000000	     24.78384929	    -10.06988697	     11.68997339	      5.69704259	      2.07838577	    -20.79971833	      0.00000000	    -13.93709531	      6.72983809	      7.99009044
      4.38000000	     -3.41957421	     -7.96075371	     -7.53169798	     -1.38512331	      0.67863621	      0.09159215	    -19.17486005	     12.24151882	     22.33537808	     -4.36570091	     17.58750487	     -7.88855084	      0.00000000	     24.16408483	    -10.51101124	     11.19909325	      7.69781029	      2.68480326	    -19.91264102	      0.00000000	    -13.67141288	      6.92537809	      8.62280617
      4.39000000	     -3.27764009	     -7.89978844	     -7.74982962	     -1.36864539	      0.67701697	      0.09104212	    -20.03495660	     11.88593719	     21.33295270	     -5.70589462	     17.75221594	     -5.64161647	      0.00000000	     23.57848319	    -10.35839163	     11.31821975	      8.52564087	      3.34228363	    -19.26354742	      0.00000000	    -13.56403553	      6.76717413	      8.96141624
